<svg width="42" height="42" viewBox="0 0 42 42" fill="none" xmlns="http://www.w3.org/2000/svg">
<circle cx="21" cy="21" r="20" stroke="white" stroke-width="2"/>
<path d="M17.5 17.75C17.5 18.4531 16.9141 19 16.25 19C15.5469 19 15 18.4531 15 17.75C15 15.0156 17.2266 12.75 20 12.75H21.25C23.9844 12.75 26.25 15.0156 26.25 17.75V17.9062C26.25 19.625 25.3516 21.1875 23.9453 22.125L22.3047 23.1797C22.0312 23.3359 21.875 23.6484 21.875 23.9609V24C21.875 24.7031 21.2891 25.25 20.625 25.25C19.9219 25.25 19.375 24.7031 19.375 24V23.9609C19.375 22.7891 19.9609 21.6953 20.9375 21.0703L22.5781 20.0156C23.2812 19.5469 23.75 18.7656 23.75 17.9062V17.75C23.75 16.3828 22.6172 15.25 21.25 15.25H20C18.5938 15.25 17.5 16.3828 17.5 17.75ZM20.625 30.25C20.0391 30.25 19.5312 29.9766 19.2578 29.4688C18.9844 29 18.9844 28.4141 19.2578 27.9062C19.5312 27.4375 20.0391 27.125 20.625 27.125C21.1719 27.125 21.6797 27.4375 21.9531 27.9062C22.2266 28.4141 22.2266 29 21.9531 29.4688C21.6797 29.9766 21.1719 30.25 20.625 30.25Z" fill="white"/>
</svg>
