<svg width="42" height="42" viewBox="0 0 42 42" fill="none" xmlns="http://www.w3.org/2000/svg">
<circle cx="21" cy="21" r="20" stroke="white" stroke-width="2"/>
<path d="M11 15C11 13.6328 12.0938 12.5 13.5 12.5H28.5C29.8672 12.5 31 13.6328 31 15V26.25C31 27.6562 29.8672 28.75 28.5 28.75H23.0703L18.2266 32.3828C18.0312 32.5391 17.7969 32.5391 17.5625 32.4609C17.3672 32.3438 17.25 32.1484 17.25 31.875V28.75H13.5C12.0938 28.75 11 27.6562 11 26.25V15ZM16.625 19.2969C16.625 19.9219 16.8594 20.5469 17.2891 20.9766L20.5312 24.2188C20.7656 24.4531 21.1953 24.4531 21.4297 24.2188L24.6328 20.9766C25.1016 20.5469 25.3359 19.9219 25.3359 19.2969C25.3359 17.9688 24.2812 16.875 22.9531 16.875C22.3281 16.875 21.7031 17.1484 21.2734 17.5781L20.9609 17.8906L20.6875 17.5781C20.2188 17.1484 19.6328 16.875 19.0078 16.875C17.6797 16.875 16.5859 17.9688 16.5859 19.2969H16.625Z" fill="white"/>
</svg>
