<svg width="42" height="42" viewBox="0 0 42 42" fill="none" xmlns="http://www.w3.org/2000/svg">
<circle cx="21" cy="21" r="20" stroke="white" stroke-width="2"/>
<path d="M28.5312 16.0781L23.6094 21L28.5312 25.9688C29.1406 26.5312 29.1406 27.5156 28.5312 28.0781C27.9688 28.6875 26.9844 28.6875 26.4219 28.0781L21.5 23.1562L16.5312 28.0781C15.9688 28.6875 14.9844 28.6875 14.4219 28.0781C13.8125 27.5156 13.8125 26.5312 14.4219 25.9688L19.3438 21L14.4219 16.0781C13.8125 15.5156 13.8125 14.5312 14.4219 13.9688C14.9844 13.3594 15.9688 13.3594 16.5312 13.9688L21.5 18.8906L26.4219 13.9688C26.9844 13.3594 27.9688 13.3594 28.5312 13.9688C29.1406 14.5312 29.1406 15.5156 28.5312 16.0781Z" fill="white"/>
</svg>
