<svg width="20" height="19" viewBox="0 0 20 19" fill="none" xmlns="http://www.w3.org/2000/svg">
<path d="M10 0.25C13.1992 0.25 16.1523 1.97266 17.7695 4.75C19.3867 7.5625 19.3867 10.9727 17.7695 13.75C16.1523 16.5625 13.1992 18.25 10 18.25C6.76562 18.25 3.8125 16.5625 2.19531 13.75C0.578125 10.9727 0.578125 7.5625 2.19531 4.75C3.8125 1.97266 6.76562 0.25 10 0.25ZM5.46484 10.1289L9.40234 14.0664C9.71875 14.418 10.2461 14.418 10.5977 14.0664L14.5 10.1289C14.8516 9.8125 14.8516 9.28516 14.5 8.96875C14.1836 8.61719 13.6562 8.61719 13.3398 8.96875L10.8438 11.4648V5.03125C10.8438 4.57422 10.457 4.1875 10 4.1875C9.50781 4.1875 9.15625 4.57422 9.15625 5.03125L9.12109 11.4648L6.625 8.96875C6.30859 8.61719 5.78125 8.61719 5.46484 8.96875C5.11328 9.28516 5.11328 9.8125 5.46484 10.1289Z" fill="#DBD672"/>
</svg>
