<svg width="21" height="19" viewBox="0 0 21 19" fill="none" xmlns="http://www.w3.org/2000/svg">
<path d="M20.625 10.0107L12.375 17.8857C11.9062 18.3076 11.2031 18.3076 10.7812 17.8389C10.3594 17.3701 10.3594 16.667 10.8281 16.2451L17.0625 10.292H1.125C0.46875 10.292 0 9.82324 0 9.16699C0 8.55762 0.46875 8.04199 1.125 8.04199H17.0625L10.8281 2.13574C10.3594 1.71387 10.3594 0.963867 10.7812 0.541992C11.2031 0.0732422 11.9531 0.0732422 12.375 0.495117L20.625 8.37012C20.8594 8.60449 21 8.88574 21 9.16699C21 9.49512 20.8594 9.77637 20.625 10.0107Z" fill="#202020"/>
</svg>
