<svg width="20" height="19" viewBox="0 0 20 19" fill="none" xmlns="http://www.w3.org/2000/svg">
<path d="M10 1.9375C7.36328 1.9375 4.97266 3.34375 3.63672 5.59375C2.33594 7.87891 2.33594 10.6562 3.63672 12.9062C4.97266 15.1914 7.36328 16.5625 10 16.5625C12.6016 16.5625 14.9922 15.1914 16.3281 12.9062C17.6289 10.6562 17.6289 7.87891 16.3281 5.59375C14.9922 3.34375 12.6016 1.9375 10 1.9375ZM10 18.25C6.76562 18.25 3.8125 16.5625 2.19531 13.75C0.578125 10.9727 0.578125 7.5625 2.19531 4.75C3.8125 1.97266 6.76562 0.25 10 0.25C13.1992 0.25 16.1523 1.97266 17.7695 4.75C19.3867 7.5625 19.3867 10.9727 17.7695 13.75C16.1523 16.5625 13.1992 18.25 10 18.25ZM13.6914 10.4102L10.5977 13.5039C10.2461 13.8555 9.71875 13.8555 9.40234 13.5039L6.30859 10.4102C5.95703 10.0938 5.95703 9.56641 6.30859 9.25C6.625 8.89844 7.15234 8.89844 7.50391 9.25L9.15625 10.9023V5.59375C9.15625 5.13672 9.50781 4.75 10 4.75C10.457 4.75 10.8438 5.13672 10.8438 5.59375V10.9023L12.4961 9.25C12.8125 8.89844 13.3398 8.89844 13.6562 9.25C14.0078 9.56641 14.0078 10.0938 13.6562 10.4102H13.6914Z" fill="#202020"/>
</svg>
