<svg width="22" height="21" viewBox="0 0 22 21" fill="none" xmlns="http://www.w3.org/2000/svg">
<path d="M13.2266 2.10156L11.3516 3.97656C10.9609 4.36719 10.375 4.36719 10.0234 3.97656C9.63281 3.625 9.63281 3.03906 10.0234 2.6875L11.8984 0.773438C12.25 0.421875 12.8359 0.421875 13.1875 0.773438C13.5781 1.16406 13.5781 1.75 13.1875 2.10156H13.2266ZM7.64062 6.67188C7.99219 5.96875 8.96875 5.96875 9.32031 6.67188L11.1172 10.3438L15.1797 10.9297C15.9609 11.0469 16.2344 11.9844 15.6875 12.5312L12.7578 15.3828L13.4609 19.4062C13.5781 20.1875 12.7969 20.7734 12.0938 20.4219L8.5 18.5078L4.86719 20.4219C4.16406 20.7734 3.38281 20.1875 3.5 19.4062L4.20312 15.3828L1.27344 12.5312C0.726562 11.9844 1 11.0469 1.78125 10.9297L5.84375 10.3438L7.64062 6.67188ZM20.7266 8.27344C21.0781 8.66406 21.0781 9.25 20.7266 9.60156L18.8516 11.4766C18.4609 11.8672 17.875 11.8672 17.5234 11.4766C17.1328 11.125 17.1328 10.5391 17.5234 10.1484L19.3984 8.27344C19.75 7.92188 20.3359 7.92188 20.7266 8.27344ZM20.7266 2.10156L15.1016 7.72656C14.7109 8.11719 14.125 8.11719 13.7734 7.72656C13.3828 7.375 13.3828 6.78906 13.7734 6.4375L19.3984 0.773438C19.75 0.421875 20.3359 0.421875 20.6875 0.773438C21.0781 1.16406 21.0781 1.75 20.6875 2.10156H20.7266Z" fill="white"/>
</svg>
